<svg width="13" height="13" viewBox="0 0 13 13" fill="none" xmlns="http://www.w3.org/2000/svg">
<path d="M6.50001 0.666672C3.28584 0.666672 0.666672 3.28584 0.666672 6.50001C0.666672 9.71417 3.28584 12.3333 6.50001 12.3333C9.71417 12.3333 12.3333 9.71417 12.3333 6.50001C12.3333 3.28584 9.71417 0.666672 6.50001 0.666672ZM6.06251 4.16667C6.06251 3.92751 6.26084 3.72917 6.50001 3.72917C6.73917 3.72917 6.93751 3.92751 6.93751 4.16667V7.08334C6.93751 7.32251 6.73917 7.52084 6.50001 7.52084C6.26084 7.52084 6.06251 7.32251 6.06251 7.08334V4.16667ZM7.03667 9.05501C7.00751 9.13084 6.96667 9.18917 6.91417 9.24751C6.85584 9.3 6.79167 9.34084 6.72167 9.37001C6.65167 9.39917 6.57584 9.41667 6.50001 9.41667C6.42417 9.41667 6.34834 9.39917 6.27834 9.37001C6.20834 9.34084 6.14417 9.3 6.08584 9.24751C6.03334 9.18917 5.99251 9.13084 5.96334 9.05501C5.93417 8.98501 5.91667 8.90917 5.91667 8.83334C5.91667 8.75751 5.93417 8.68167 5.96334 8.61167C5.99251 8.54167 6.03334 8.47751 6.08584 8.41917C6.14417 8.36667 6.20834 8.32584 6.27834 8.29667C6.41834 8.23834 6.58167 8.23834 6.72167 8.29667C6.79167 8.32584 6.85584 8.36667 6.91417 8.41917C6.96667 8.47751 7.00751 8.54167 7.03667 8.61167C7.06584 8.68167 7.08334 8.75751 7.08334 8.83334C7.08334 8.90917 7.06584 8.98501 7.03667 9.05501Z" fill="#FF3E4C"/>
</svg>
