<svg width="48" height="48" viewBox="0 0 48 48" fill="none" xmlns="http://www.w3.org/2000/svg">
<rect width="48" height="48" rx="24" fill="white"/>
<path d="M31.3083 30.275C31.3083 30.575 31.2417 30.8833 31.1 31.1833C30.9583 31.4833 30.775 31.7666 30.5333 32.0333C30.125 32.4833 29.675 32.8083 29.1667 33.0166C28.6667 33.225 28.125 33.3333 27.5417 33.3333C26.6917 33.3333 25.7833 33.1333 24.825 32.725C23.8667 32.3166 22.9083 31.7666 21.9583 31.075C21 30.375 20.0917 29.6 19.225 28.7416C18.3667 27.875 17.5917 26.9666 16.9 26.0166C16.2167 25.0666 15.6667 24.1166 15.2667 23.175C14.8667 22.225 14.6667 21.3166 14.6667 20.45C14.6667 19.8833 14.7667 19.3416 14.9667 18.8416C15.1667 18.3333 15.4833 17.8666 15.925 17.45C16.4583 16.925 17.0417 16.6666 17.6583 16.6666C17.8917 16.6666 18.125 16.7166 18.3333 16.8166C18.55 16.9166 18.7417 17.0666 18.8917 17.2833L20.825 20.0083C20.975 20.2166 21.0833 20.4083 21.1583 20.5916C21.2333 20.7666 21.275 20.9416 21.275 21.1C21.275 21.3 21.2167 21.5 21.1 21.6916C20.9917 21.8833 20.8333 22.0833 20.6333 22.2833L20 22.9416C19.9083 23.0333 19.8667 23.1416 19.8667 23.275C19.8667 23.3416 19.875 23.4 19.8917 23.4666C19.9167 23.5333 19.9417 23.5833 19.9583 23.6333C20.1083 23.9083 20.3667 24.2666 20.7333 24.7C21.1083 25.1333 21.5083 25.575 21.9417 26.0166C22.3917 26.4583 22.825 26.8666 23.2667 27.2416C23.7 27.6083 24.0583 27.8583 24.3417 28.0083C24.3833 28.025 24.4333 28.05 24.4917 28.075C24.5583 28.1 24.625 28.1083 24.7 28.1083C24.8417 28.1083 24.95 28.0583 25.0417 27.9666L25.675 27.3416C25.8833 27.1333 26.0833 26.975 26.275 26.875C26.4667 26.7583 26.6583 26.7 26.8667 26.7C27.025 26.7 27.1917 26.7333 27.375 26.8083C27.5583 26.8833 27.75 26.9916 27.9583 27.1333L30.7167 29.0916C30.9333 29.2416 31.0833 29.4166 31.175 29.625C31.2583 29.8333 31.3083 30.0416 31.3083 30.275Z" stroke="#3F139D" stroke-width="1.2" stroke-miterlimit="10"/>
<path d="M28.4167 22.5C28.4167 22 28.025 21.2334 27.4417 20.6084C26.9084 20.0334 26.2 19.5834 25.5 19.5834" stroke="#3F139D" stroke-width="1.2" stroke-linecap="round" stroke-linejoin="round"/>
<path d="M31.3334 22.5C31.3334 19.275 28.725 16.6666 25.5 16.6666" stroke="#3F139D" stroke-width="1.2" stroke-linecap="round" stroke-linejoin="round"/>
</svg>
